{
    "asset" : {
        "generator" : "Khronos glTF Blender I/O v1.1.45",
        "version" : "2.0"
    },
    "scene" : 0,
    "scenes" : [
        {
            "name" : "Scene",
            "nodes" : [
                0,
                1,
                2,
                3
            ]
        }
    ],
    "nodes" : [
        {
            "name" : "Sun"
        },
        {
            "name" : "Camera",
            "rotation" : [
                0.1812444031238556,
                -0.822832465171814,
                0.4105185270309448,
                0.3486713767051697
            ],
            "translation" : [
                -5.524141311645508,
                9.256357192993164,
                -2.318756103515625
            ]
        },
        {
            "mesh" : 0,
            "name" : "Torus"
        },
        {
            "mesh" : 1,
            "name" : "navMesh"
        }
    ],
    "materials" : [
        {
            "doubleSided" : true,
            "emissiveFactor" : [
                0,
                0,
                0
            ],
            "name" : "Material.001",
            "pbrMetallicRoughness" : {
                "baseColorTexture" : {
                    "index" : 0,
                    "texCoord" : 0
                },
                "metallicFactor" : 0,
                "roughnessFactor" : 0.5
            }
        }
    ],
    "meshes" : [
        {
            "name" : "Torus",
            "primitives" : [
                {
                    "attributes" : {
                        "POSITION" : 0,
                        "NORMAL" : 1,
                        "TEXCOORD_0" : 2
                    },
                    "indices" : 3,
                    "material" : 0
                }
            ]
        },
        {
            "name" : "Circle",
            "primitives" : [
                {
                    "attributes" : {
                        "POSITION" : 4,
                        "NORMAL" : 5,
                        "TEXCOORD_0" : 6
                    },
                    "indices" : 7
                }
            ]
        }
    ],
    "textures" : [
        {
            "source" : 0
        }
    ],
    "images" : [
        {
            "bufferView" : 4,
            "mimeType" : "image/png",
            "name" : "screentone_4"
        }
    ],
    "accessors" : [
        {
            "bufferView" : 0,
            "componentType" : 5126,
            "count" : 855,
            "max" : [
                9.28834342956543,
                4.716165542602539,
                9.295692443847656
            ],
            "min" : [
                -9.700309753417969,
                -0.7232004404067993,
                -21.531728744506836
            ],
            "type" : "VEC3"
        },
        {
            "bufferView" : 1,
            "componentType" : 5126,
            "count" : 855,
            "type" : "VEC3"
        },
        {
            "bufferView" : 2,
            "componentType" : 5126,
            "count" : 855,
            "type" : "VEC2"
        },
        {
            "bufferView" : 3,
            "componentType" : 5123,
            "count" : 1590,
            "type" : "SCALAR"
        },
        {
            "bufferView" : 5,
            "componentType" : 5126,
            "count" : 22,
            "max" : [
                4.891892433166504,
                0.35166195034980774,
                4.891892433166504
            ],
            "min" : [
                -4.891892433166504,
                -7.450580596923828e-09,
                -21.54061508178711
            ],
            "type" : "VEC3"
        },
        {
            "bufferView" : 6,
            "componentType" : 5126,
            "count" : 22,
            "type" : "VEC3"
        },
        {
            "bufferView" : 7,
            "componentType" : 5126,
            "count" : 22,
            "type" : "VEC2"
        },
        {
            "bufferView" : 8,
            "componentType" : 5123,
            "count" : 48,
            "type" : "SCALAR"
        }
    ],
    "bufferViews" : [
        {
            "buffer" : 0,
            "byteLength" : 10260,
            "byteOffset" : 0
        },
        {
            "buffer" : 0,
            "byteLength" : 10260,
            "byteOffset" : 10260
        },
        {
            "buffer" : 0,
            "byteLength" : 6840,
            "byteOffset" : 20520
        },
        {
            "buffer" : 0,
            "byteLength" : 3180,
            "byteOffset" : 27360
        },
        {
            "buffer" : 0,
            "byteLength" : 29901,
            "byteOffset" : 30540
        },
        {
            "buffer" : 0,
            "byteLength" : 264,
            "byteOffset" : 60444
        },
        {
            "buffer" : 0,
            "byteLength" : 264,
            "byteOffset" : 60708
        },
        {
            "buffer" : 0,
            "byteLength" : 176,
            "byteOffset" : 60972
        },
        {
            "buffer" : 0,
            "byteLength" : 96,
            "byteOffset" : 61148
        }
    ],
    "buffers" : [
        {
            "byteLength" : 61244,
            "uri" : "data:application/octet-stream;base64,"
        }
    ]
}
